# xmcd CD database file
# Copyright (C) 1997 Ti Kan
#
# Track frame offsets:
#  182
#  12900
#  35462
#  48457
#  59680
#  72535
#  85600
#  97227
#  109305
#  124242
#
# Disc length: 1834 seconds
#
# Revision: 2
# Processed by: cddbd v1.4PL0 Copyright (c) Steve Scherf et al.
# Submitted via: Gronk 1.4
#
DISCID=9007280a
DTITLE=Elmore James - History Of Elmore James (Vol. 1)
DYEAR=1900
DGENRE=blues
TTITLE0=The Sky Is Crying
TTITLE1=Something Inside Of Me
TTITLE2=I Need You
TTITLE3=Stormy Monday Blues
TTITLE4=The Sun Is Shining
TTITLE5=Catfish Blues
TTITLE6=Fine Little Mama
TTITLE7=Make My Dreams Come True
TTITLE8=Held My Baby Last Night
TTITLE9=Standing At The Crossroads
EXTD=
EXTT0=
EXTT1=
EXTT2=
EXTT3=
EXTT4=
EXTT5=
EXTT6=
EXTT7=
EXTT8=
EXTT9=
PLAYORDER=
